/* XPM */
static char *result[] = {
/* columns rows colors chars-per-pixel */
"100 100 86 1 ",
"  c #CBA928",
". c #CDAA28",
"X c #D1B02D",
"o c #D2B02E",
"O c #D6B532",
"+ c #DABA38",
"@ c #DBBB39",
"# c #EFC813",
"$ c #F0C914",
"% c #F2CB16",
"& c #F3CC16",
"* c #F4CD17",
"= c #F0CB1B",
"- c #F3CD1B",
"; c #F7CF19",
": c #F5CF1F",
"> c #F9D11B",
", c #F9D11C",
"< c #FAD21C",
"1 c #F9D21F",
"2 c #FAD21E",
"3 c #FAD31F",
"4 c #F0CC23",
"5 c #F5D023",
"6 c #FAD320",
"7 c #FAD423",
"8 c #FAD324",
"9 c #FAD424",
"0 c #F3D02A",
"q c #FAD52A",
"w c #FAD52B",
"e c #F8D52E",
"r c #FAD730",
"t c #FAD733",
"y c #F5D539",
"u c #F6D539",
"i c #F6D73F",
"p c #F8D73F",
"a c #FADA3D",
"s c #F8D83E",
"d c #DBBC40",
"f c #DBBC45",
"g c #DBBE51",
"h c #E4C643",
"j c #EDD14E",
"k c #FBDA46",
"l c #FBDC46",
"z c #F7DA48",
"x c #F7DA49",
"c c #F7DA4B",
"v c #FBDA49",
"b c #FBDB4A",
"n c #FBDD4B",
"m c #F2D855",
"M c #F9DD50",
"N c #FBDC52",
"B c #FADF57",
"V c #F6DC59",
"C c #F8DE5B",
"Z c #FBE058",
"A c #F9E15E",
"S c #FBE15F",
"D c #FBE25F",
"F c #FCE25F",
"G c #FBDE62",
"H c #FBDF66",
"J c #FBE367",
"K c #FBE368",
"L c #FCE368",
"P c #FAE26D",
"I c #FCE577",
"U c #FCE787",
"Y c #FCE888",
"T c #FBE797",
"R c #FCE998",
"E c #FCE89F",
"W c #F8E5A2",
"Q c #FAE7A4",
"! c #FCE8A0",
"~ c #FBE9A7",
"^ c #FDEBA8",
"/ c #FBEBAF",
"( c #FCEBAF",
") c #FDECB0",
"_ c #FEECB0",
"` c None",
/* pixels */
"````````````````````````````````````````````````````````````````````````````````````````````````````",
"````````````````````````````````````````````````````````````````````````````````````````````````````",
"````````````````````````````AAAAAT////////////////AAAAAK////~AAAAAj     ````````````````````````````",
"```````````````````````````ADDDDDR))))))))))))))))DDDDDJ))))^DDDDDj..... ```````````````````````````",
"```````````````````````````ADDDDDR))))))))))))))))DDDDDJ))))^DDDDDj..... ```````````````````````````",
"```````````````````````````ADDDDDR))))))))))))))))DDDDDJ))))^DDDDDj..... ```````````````````````````",
"```````````````````````````ADDDDDR))))))))))))))))DDDDDJ))))^DDDDDj..... ```````````````````````````",
"```````````````````````````ADDDDDR))))))))))))))))DDDDDJ))))^DDDDDj..... ```````````````````````````",
"`````````````````_____YDDDDi00000pvvvvvvvvvvvvvvvvrrrrrtvvvvkrrrrrujjjjjmDDDDh.....`````````````````",
"`````````````````)))))UDDDDy#####;<<<<<<<<<<<<<<<<<<<<<<<<<<<<<<<<rDDDDDDDDDDh.....`````````````````",
"`````````````````)))))UDDDDy#####;<<<<<<<<<<<<<<<<<<<<<<<<<<<<<<<<rDDDDDDDDDDh.....`````````````````",
"`````````````````)))))UDDDDy#####;<<<<<<<<<<<<<<<<<<<<<<<<<<<<<<<<rDDDDDDDDDDh.....`````````````````",
"`````````````````)))))UDDDDy#####;<<<<<<<<<<<<<<<<<<<<<<<<<<<<<<<<rDDDDDDDDDDh.....`````````````````",
"`````````````````)))))UDDDDy#####;<<<<<<<<<<<<<<<<<<<<<<<<<<<<<<<<rDDDDDDDDDDh.....`````````````````",
"```````````FFFFFc44444577771>>>>><<<<<<<<<<<<<<<<<<<<<<<<<<<<<<<<<27777777777sVVVVV+.....```````````",
"```````````DDDDDz#####*<<<<<<<<<<<<<<<<<<<<<<<<<<<<<<<<<<<<<<<<<<<<<<<<<<<<<<aDDDDD@.....```````````",
"```````````DDDDDz#####*<<<<<<<<<<<<<<<<<<<<<<<<<<<<<<<<<<<<<<<<<<<<<<<<<<<<<<aDDDDD@.....```````````",
"```````````DDDDDz#####*<<<<<<<<<<<<<<<<<<<<<<<<<<<<<<<<<<<<<<<<<<<<<<<<<<<<<<aDDDDD@.....```````````",
"```````````DDDDDz#####*<<<<<<<<<<<<<<<<<<<<<<<<<<<<<<<<<<<<<<<<<<<<<<<<<<<<<<aDDDDD@.....```````````",
"``````))))E=====->>>>>,<<<<<<<<<<<<<<<<<<<<<<<<<<<<<<<<<<<<<<<<<<<<<<<<<<<<<<377777xVVVVVX....``````",
"``````))))!#####%<<<<<<<<<<<<<<<<<<<<<<<<<<<<<<<<<<<<<<<<<<<<<<<<<<<<<<<<<<<<<<<<<<nDDDDDo....``````",
"``````))))!#####%<<<<<<<<<<<<<<<<<<<<<<<<<<<<<<<<<<<<<<<<<<<<<<<<<<<<<<<<<<<<<<<<<<nDDDDDo....``````",
"``````))))!#####%<<<<<<<<<<<<<<<<<<<<<<<<<<<<<<<<<<<<<<<<<<<<<<<<<<<<<<<<<<<<<<<<<<nDDDDDo....``````",
"``````))))!#####%<<<<<<<<<<<<<<<<<<<<<<<<<<<<<<<<<<<<<<<<<<<<<<<<<<<<<<<<<<<<<<<<<<nDDDDDo....``````",
"``````))))!#####%<<<<<<<<<<<<<<<<<<<<<<<<<<<<<<<<<<<<<<<<<<<<<<<<<<<<<<<<<<<<<<<<<<nDDDDDo....``````",
"``````DDDDB#####%<<<<<<<<<<<<<<<<<<<<<<<<<<<<<<<<<<<<<<<<<<<<<<<<<<<<<<<<<<<<<<<<<<nDDDDDo....``````",
"``````DDDDB#####%<<<<<<<<<<<<<<<<<<<<<<<<<<<<<<<<<<<<<<<<<<<<<<<<<<<<<<<<<<<<<<<<<<nDDDDDo....``````",
"``````DDDDB#####%<<<<<<<<<<<<<<<<<<<<<<<<<<<<<<<<<<<<<<<<<<<<<<<<<<<<<<<<<<<<<<<<<<nDDDDDo....``````",
"``````DDDDB#####%<<<<<<<<<<<<<<<<<<<<<<<<<<<<<<<<<<<<<<<<<<<<<<<<<<<<<<<<<<<<<<<<<<nDDDDDo....``````",
"``````DDDDB#####%<<<<<<<<<<<<<<<<<<<<<<<<<<<<<<<<<<<<<<<<<<<<<<<<<<<<<<<<<<<<<<<<<<nDDDDDo....``````",
"``````BBBBM$$$$$&<<<<<<<<<<8wwwwwwwwwwwwwwww977777wwwwwq77777777776>>>>>,<<<<<<<<<<lZZZZZOoooo``````",
")))))!####$<<<<<<<<<<<<<<<<H))))))))))))))))JDDDDD)))))^DDDDDDDDDDz#####*<<<<<<<<<<<<<<<<ZDDDDo.....",
")))))!####$<<<<<<<<<<<<<<<<H))))))))))))))))JDDDDD)))))^DDDDDDDDDDz#####*<<<<<<<<<<<<<<<<ZDDDDo.....",
")))))!####$<<<<<<<<<<<<<<<<H))))))))))))))))JDDDDD)))))^DDDDDDDDDDz#####*<<<<<<<<<<<<<<<<ZDDDDo.....",
")))))!####$<<<<<<<<<<<<<<<<H))))))))))))))))JDDDDD)))))^DDDDDDDDDDz#####*<<<<<<<<<<<<<<<<ZDDDDo.....",
")))))!####$<<<<<<<<<<<<<<<<G^^^^^QWWWWW())))LFFFFF)))))^FFFFSDDDDDz#####*<<<<<<<<<<<<<<<<ZDDDDo.....",
")))))!####$<<<<<<<<<<<<<<<<aDDDDD@.....``````````````````````DDDDDz#####*<<<<<<<<<<<<<<<<ZDDDDo.....",
")))))!####$<<<<<<<<<<<<<<<<aDDDDD@.....``````````````````````DDDDDz#####*<<<<<<<<<<<<<<<<ZDDDDo.....",
")))))!####$<<<<<<<<<<<<<<<<aDDDDD@.....``````````````````````DDDDDz#####*<<<<<<<<<<<<<<<<ZDDDDo.....",
")))))!####$<<<<<<<<<<<<<<<<aDDDDD@.....``````````````````````DDDDDz#####*<<<<<<<<<<<<<<<<ZDDDDo.....",
")))))!####$<<<<<<<<<<<<<<<<aDDDDD@.....``````````````````````DDDDDz#####*<<<<<<<<<<<<<<<<ZDDDDo.....",
")))))!####$<<<<<<<<<<<<<<<<bIIIIId.....``````````````````````DDDDDz#####*<<<<<<<<<<<<<<<<ZDDDDo.....",
")))))!####$<<<<<<<<<<<<<<<<H)))))g.....``````````````````````DDDDDz#####*<<<<<<<<<<<<<<<<ZDDDDo.....",
")))))!####$<<<<<<<<<<<<<<<<H)))))g.....``````````````````````DDDDDz#####*<<<<<<<<<<<<<<<<ZDDDDo.....",
")))))!####$<<<<<<<<<<<<<<<<H)))))g.....``````````````````````DDDDDz#####*<<<<<<<<<<<<<<<<ZDDDDo.....",
")))))!####$<<<<<<<<<<<<<<<<H)))))g.....``````````````````````DDDDDz#####*<<<<<<<<<<<<<<<<ZDDDDo.....",
")))))!####$<<<<<<<<<<<<<<<<H)))))g.....``````````````````````DDDDDz#####*<<<<<<<<<<<<<<<<ZDDDDo.....",
")))))!####$<<<<<<<<<<<<<<<<H)))))g.....``````````````````````DDDDDz#####*<<<<<<<<<<<<<<<<ZDDDDo.....",
")))))!####$<<<<<<<<<<<<<<<<H)))))g.....``````````````````````DDDDDz#####*<<<<<<<<<<<<<<<<ZDDDDo.....",
")))))!####$<<<<<<<<<<<<<<<<H)))))g.....``````````````````````DDDDDz#####*<<<<<<<<<<<<<<<<ZDDDDo.....",
")))))!####$<<<<<<<<<<<<<<<<H)))))g.....``````````````````````DDDDDz#####*<<<<<<<<<<<<<<<<ZDDDDo.....",
")))))!####$<<<<<<<<<<<<<<<<H)))))g.....``````````````````````DDDDDz#####*<<<<<<<<<<<<<<<<ZDDDDo.....",
")))))!####$<<<<<<<<<<<<<<<<NUUUUUf.....``````````````````````DDDDDz#####*<<<<<<<<<<<<<<<<ZDDDDo.....",
")))))!####$<<<<<<<<<<<<<<<<aDDDDD@.....``````````````````````DDDDDz#####*<<<<<<<<<<<<<<<<ZDDDDo.....",
")))))!####$<<<<<<<<<<<<<<<<aDDDDD@.....``````````````````````DDDDDz#####*<<<<<<<<<<<<<<<<ZDDDDo.....",
")))))!####$<<<<<<<<<<<<<<<<aDDDDD@.....``````````````````````DDDDDz#####*<<<<<<<<<<<<<<<<ZDDDDo.....",
")))))!####$<<<<<<<<<<<<<<<<aDDDDD@.....``````````````````````DDDDDz#####*<<<<<<<<<<<<<<<<ZDDDDo.....",
")))))!####$<<<<<<<<<<<<<<<<aDDDDD@.....``````````````````````DDDDDz#####*<<<<<<<<<<<<<<<<ZDDDDo.....",
"IIIIIP####$<<<<<<<<<<<<<<<<aDDDDD@.....``````````````````````DDDDDz#####*<<<<<<<<<<<<<<<<ZDDDDo.....",
"DDDDDB####$<<<<<<<<<<<<<<<<aDDDDD@.....``````````````````````DDDDDz#####*<<<<<<<<<<<<<<<<ZDDDDo.....",
"DDDDDB####$<<<<<<<<<<<<<<<<aDDDDD@.....``````````````````````DDDDDz#####*<<<<<<<<<<<<<<<<ZDDDDo.....",
"DDDDDB####$<<<<<<<<<<<<<<<<aDDDDD@.....``````````````````````DDDDDz#####*<<<<<<<<<<<<<<<<ZDDDDo.....",
"DDDDDB####$<<<<<<<<<<<<<<<<aDDDDD@.....``````````````````````DDDDDz#####*<<<<<<<<<<<<<<<<ZDDDDo.....",
"DDDDDB####$<<<<<<<<<<<<<<<<aDDDDD@.....``````````````````````DDDDDz#####*<<<<<<<<<<<<<<<<ZDDDDo.....",
"DDDDDB####$<<<<<<<<<<<<<<<<aDDDDDCVVVVVSFFFFFFFFFFFFFFFFFFFFSDDDDDz#####*<<<<<<<<<<<<<<<<ZDDDDo.....",
"DDDDDB####$<<<<<<<<<<<<<<<<aDDDDDDDDDDDDDDDDDDDDDDDDDDDDDDDDDDDDDDz#####*<<<<<<<<<<<<<<<<ZDDDDo.....",
"DDDDDB####$<<<<<<<<<<<<<<<<aDDDDDDDDDDDDDDDDDDDDDDDDDDDDDDDDDDDDDDz#####*<<<<<<<<<<<<<<<<ZDDDDo.....",
"DDDDDB####$<<<<<<<<<<<<<<<<aDDDDDDDDDDDDDDDDDDDDDDDDDDDDDDDDDDDDDDz#####*<<<<<<<<<<<<<<<<ZDDDDo.....",
"DDDDDB####$<<<<<<<<<<<<<<<<aDDDDDDDDDDDDDDDDDDDDDDDDDDDDDDDDDDDDDDz#####*<<<<<<<<<<<<<<<<ZDDDDo.....",
"``````BBBBM$$$$$&<<<<<<<<<<3777777777777777777777777777777777777776>>>>>,<<<<<<<<<<lZZZZZOoooo``````",
"``````DDDDB#####%<<<<<<<<<<<<<<<<<<<<<<<<<<<<<<<<<<<<<<<<<<<<<<<<<<<<<<<<<<<<<<<<<<nDDDDDo....``````",
"``````DDDDB#####%<<<<<<<<<<<<<<<<<<<<<<<<<<<<<<<<<<<<<<<<<<<<<<<<<<<<<<<<<<<<<<<<<<nDDDDDo....``````",
"``````DDDDB#####%<<<<<<<<<<<<<<<<<<<<<<<<<<<<<<<<<<<<<<<<<<<<<<<<<<<<<<<<<<<<<<<<<<nDDDDDo....``````",
"``````DDDDB#####%<<<<<<<<<<<<<<<<<<<<<<<<<<<<<<<<<<<<<<<<<<<<<<<<<<<<<<<<<<<<<<<<<<nDDDDDo....``````",
"``````DDDDB#####%<<<<<<<<<<<<<<<<<<<<<<<<<<<<<<<<<<<<<<<<<<<<<<<<<<<<<<<<<<<<<<<<<<nDDDDDo....``````",
"``````DDDDB#####%<<<<<<<<<<<<<<<<<<<<<<<<<<<<<<<<<<<<<<<<<<<<<<<<<<<<<<<<<<<<<<<<<<nDDDDDo....``````",
"``````DDDDB#####%<<<<<<<<<<<<<<<<<<<<<<<<<<<<<<<<<<<<<<<<<<<<<<<<<<<<<<<<<<<<<<<<<<nDDDDDo....``````",
"``````DDDDB#####%<<<<<<<<<<<<<<<<<<<<<<<<<<<<<<<<<<<<<<<<<<<<<<<<<<<<<<<<<<<<<<<<<<nDDDDDo....``````",
"``````DDDDB#####%<<<<<<<<<<<<<<<<<<<<<<<<<<<<<<<<<<<<<<<<<<<<<<<<<<<<<<<<<<<<<<<<<<nDDDDDo....``````",
"``````DDDDB#####%<<<<<<<<<<<<<<<<<<<<<<<<<<<<<<<<<<<<<<<<<<<<<<<<<<<<<<<<<<<<<<<<<<nDDDDDo....``````",
"``````FFFFB=====->>>>>,<<<<<<<<<<<<<<<<<<<<<<<<<<<<<<<<<<<<<<<<<<<<<<<<<<<<<<377777xVVVVVX....``````",
"```````````DDDDDz#####*<<<<<<<<<<<<<<<<<<<<<<<<<<<<<<<<<<<<<<<<<<<<<<<<<<<<<<aDDDDD@.....```````````",
"```````````DDDDDz#####*<<<<<<<<<<<<<<<<<<<<<<<<<<<<<<<<<<<<<<<<<<<<<<<<<<<<<<aDDDDD@.....```````````",
"```````````DDDDDz#####*<<<<<<<<<<<<<<<<<<<<<<<<<<<<<<<<<<<<<<<<<<<<<<<<<<<<<<aDDDDD@.....```````````",
"```````````DDDDDz#####*<<<<<<<<<<<<<<<<<<<<<<<<<<<<<<<<<<<<<<<<<<<<<<<<<<<<<<aDDDDD@.....```````````",
"```````````FFFFFx=====:77771>>>>><<<<<<<<<<<<<<<<<<<<<<<<<<<<<<<<<27777777777sVVVVV+.....```````````",
"`````````````````DDDDDDDDDDy#####;<<<<<<<<<<<<<<<<<<<<<<<<<<<<<<<<rDDDDDDDDDDh.....`````````````````",
"`````````````````DDDDDDDDDDy#####;<<<<<<<<<<<<<<<<<<<<<<<<<<<<<<<<rDDDDDDDDDDh.....`````````````````",
"`````````````````DDDDDDDDDDy#####;<<<<<<<<<<<<<<<<<<<<<<<<<<<<<<<<rDDDDDDDDDDh.....`````````````````",
"`````````````````DDDDDDDDDDy#####;<<<<<<<<<<<<<<<<<<<<<<<<<<<<<<<<rDDDDDDDDDDh.....`````````````````",
"`````````````````DDDDDDDDDDy#####;<<<<<<<<<<<<<<<<<<<<<<<<<<<<<<<<rDDDDDDDDDDh.....`````````````````",
"`````````````````DDDDDDDDDDi00000errrrrrrrrrrrrrrrrrrrrrrrrrrrrrrrujjjjjmDDDDh.....`````````````````",
"```````````````````````````ADDDDDDDDDDDDDDDDDDDDDDDDDDDDDDDDDDDDDDj..... ```````````````````````````",
"```````````````````````````ADDDDDDDDDDDDDDDDDDDDDDDDDDDDDDDDDDDDDDj..... ```````````````````````````",
"```````````````````````````ADDDDDDDDDDDDDDDDDDDDDDDDDDDDDDDDDDDDDDj..... ```````````````````````````",
"```````````````````````````ADDDDDDDDDDDDDDDDDDDDDDDDDDDDDDDDDDDDDDj..... ```````````````````````````",
"```````````````````````````ADDDDDDDDDDDDDDDDDDDDDDDDDDDDDDDDDDDDDDj..... ```````````````````````````",
"````````````````````````````AAAAAAAAAAAAAAAAAAAAAAAAAAAAAAAAAAAAAAj     ````````````````````````````",
"````````````````````````````````````````````````````````````````````````````````````````````````````",
"````````````````````````````````````````````````````````````````````````````````````````````````````"
};
