/* XPM */
static char *fad792215ec4468fdee5adf98507f2ebcffs06eOGqpLb3XY[] = {
/* columns rows colors chars-per-pixel */
"100 100 69 1 ",
"  c None",
". c #9D041F",
"X c #BB0000",
"o c #BE0000",
"O c #C00000",
"+ c #C60000",
"@ c #C90000",
"# c #DB0000",
"$ c #DD0000",
"% c #E40000",
"& c #E50000",
"* c #E60000",
"= c #E70000",
"- c #E80000",
"; c #E90000",
": c #EB0000",
"> c #EF0000",
", c #F00000",
"< c #F10000",
"1 c #F30000",
"2 c #F80000",
"3 c #FA0000",
"4 c #FB0000",
"5 c #FC0000",
"6 c #FD0000",
"7 c #FE0000",
"8 c red",
"9 c #FF0101",
"0 c #FF0202",
"q c #FF0303",
"w c #FE0808",
"e c #FD0C0C",
"r c #E3031B",
"t c #FD1010",
"y c #D13A3A",
"u c #FA2020",
"i c #F73737",
"p c #F64040",
"a c #F35454",
"s c #EF6D6D",
"d c #EE6F6F",
"f c #EF6F6F",
"g c #F06767",
"h c #F06A6A",
"j c #EF7272",
"k c #4916B2",
"l c #1919D1",
"z c #1A19D1",
"x c #1B1BDF",
"c c #2E17C1",
"v c #7878D1",
"b c #7F7FDF",
"n c #E79F9F",
"m c #E89C9C",
"M c #E6A5A5",
"N c #E6A8A8",
"B c #E5ABAB",
"V c #AEAEDF",
"C c #B0B0DF",
"Z c #D3C3C3",
"A c #C7C7DF",
"S c gray82",
"D c #DFDCDC",
"F c #DFDEDE",
"G c #DFDFDF",
"H c #E1CFCF",
"J c #E1D0D0",
"K c #E1D4D4",
"L c #E0D7D7",
/* pixels */
"                                                                                                    ",
"                                                                                                    ",
"                                                                                                    ",
"                                     88888888888888888888888888                                     ",
"                                     88888888888888888888888888                                     ",
"                                     88888888888888888888888888                                     ",
"                                     88888888888888888888888888                                     ",
"                                     88888888888888888888888888                                     ",
"                                     88888888888888888888888888                                     ",
"                                    :88888888888888888888888888:                                    ",
"                       X,,,,,,,,,,,,2888888888888888888888888882,,,,,,,,,,,,o                       ",
"                       +8888888888888888888888888888888888888888888888888888@                       ",
"                       +8888888888888888888888888888888888888888888888888888@                       ",
"                       +8888888888888888888888888888888888888888888888888888@                       ",
"                       +8888888888888888888888888888888888888888888888888888@                       ",
"                       +8888888888888888888888888888888888888888888888888888@                       ",
"                       #8888888888888888888888888888888888888888888888888888#                       ",
"                 888888888888888888888888888888888888888888888888888888888888888888                 ",
"                 888888888888888888888888888888888888888888888888888888888888888888                 ",
"                 888888888888888888888888888888888888888888888888888888888888888888                 ",
"                 888888888888888888888888888888888888888888888888888888888888888888                 ",
"                 888888888888888888888888888888888888888888888888888888888888888888                 ",
"                 888888888888888888888888888888888888888888888888888888888888888888                 ",
"          X+++++yNNNNNNNNNNNNNe8888888888888888888888888aMNNNNNNNNNNNm8888888888888#+++++X          ",
"          ,88888pGGGGGGGGGGGGGt8888888888888888888888888dGGGGGGGGGGGGH8888888888888888888,          ",
"          ,88888pGGGGGGGGGGGGGt8888888888888888888888888dGGGGGGGGGGGGH8888888888888888888,          ",
"          ,88888pGGGGGGGGGGGGGt8888888888888888888888888dGGGGGGGGGGGGH8888888888888888888,          ",
"          ,88888pGGGGGGGGGGGGGt8888888888888888888888888dGGGGGGGGGGGGH8888888888888888888,          ",
"          ,88888pGGGGGGGGGGGGGt8888888888888888888888888dGGGGGGGGGGGGH8888888888888888888,          ",
"          ,88888pGGGGGGGGGGGGGt8888888888888888888888888dGGGGGGGGGGGGH8888888888888888888,          ",
"          ZHHHHHKGGGGGGGGGGGGGJHHHHHh8888888888888HHHHHHKGGGGGGGGGGGGGHHHHHHn888888888888,          ",
"          SGGGGGGGGGGGGGGGGGGGGGGGGGj8888888888888GGGGGGGGGGGGGGGGGGGGGGGGGGN888888888888,          ",
"          SGGGGGGGGGGGGGGGGGGGGGGGGGj8888888888888GGGGGGGGGGGGGGGGGGGGGGGGGGN888888888888,          ",
"          SGGGGGGGGGGGGGGGGGGGGGGGGGj8888888888888GGGGGGGGGGGGGGGGGGGGGGGGGGN888888888888,          ",
"          SGGGGGGGGGGGGGGGGGGGGGGGGGj8888888888888GGGGGGGGGGGGGGGGGGGGGGGGGGN888888888888,          ",
"          SGGGGGGGGGGGGGGGGGGGGGGGGGj8888888888888GGGGGGGGGGGGGGGGGGGGGGGGGGN888888888888,          ",
"          vbbbbbbbbbbbbAGGGGGGGGGGGGj8888888888888bbbbbbbbbbbbbCGGGGGGGGGGGGN888888888888,          ",
"          zxxxxxxxxxxxxVGGGGGGGGGGGGj8888888888888xxxxxxxxxxxxxbGGGGGGGGGGGGN888888888888,          ",
"          zxxxxxxxxxxxxVGGGGGGGGGGGGj8888888888888xxxxxxxxxxxxxbGGGGGGGGGGGGN888888888888,          ",
"          zxxxxxxxxxxxxVGGGGGGGGGGGGj8888888888888xxxxxxxxxxxxxbGGGGGGGGGGGGN888888888888,          ",
"          zxxxxxxxxxxxxVGGGGGGGGGGGGj8888888888888xxxxxxxxxxxxxbGGGGGGGGGGGGN888888888888,          ",
"          zxxxxxxxxxxxxVGGGGGGGGGGGGj8888888888888xxxxxxxxxxxxxbGGGGGGGGGGGGN888888888888,          ",
"          zxxxxxxxxxxxxVGGGGGGGGGGGGj8888888888888xxxxxxxxxxxxxbGGGGGGGGGGGGN888888888888>          ",
"         .cxxxxxxxxxxxxVGGGGGGGGGGGGj8888888888888xxxxxxxxxxxxxbGGGGGGGGGGGGN888888888888,o         ",
"   888888rkxxxxxxxxxxxxVGGGGGGGGGGGGj8888888888888xxxxxxxxxxxxxbGGGGGGGGGGGGN88888888888888888888   ",
"   888888rkxxxxxxxxxxxxVGGGGGGGGGGGGj8888888888888xxxxxxxxxxxxxbGGGGGGGGGGGGN88888888888888888888   ",
"   888888rkxxxxxxxxxxxxVGGGGGGGGGGGGj8888888888888xxxxxxxxxxxxxbGGGGGGGGGGGGN88888888888888888888   ",
"   888888rkxxxxxxxxxxxxVGGGGGGGGGGGGj8888888888888xxxxxxxxxxxxxbGGGGGGGGGGGGN88888888888888888888   ",
"   888888rkxxxxxxxxxxxxVGGGGGGGGGGGGj8888888888888xxxxxxxxxxxxxbGGGGGGGGGGGGN88888888888888888888   ",
"   888888rkxxxxxxxxxxxxVGGGGGGGGGGGGj8888888888888xxxxxxxxxxxxxbGGGGGGGGGGGGN88888888888888888888   ",
"   8888888888888pGGGGGGGGGGGGGt8888888888888888888888888dGGGGGGGGGGGGH888888888888888888888888888   ",
"   8888888888888pGGGGGGGGGGGGGt8888888888888888888888888dGGGGGGGGGGGGH888888888888888888888888888   ",
"   8888888888888pGGGGGGGGGGGGGt8888888888888888888888888dGGGGGGGGGGGGH888888888888888888888888888   ",
"   8888888888888pGGGGGGGGGGGGGt8888888888888888888888888dGGGGGGGGGGGGH888888888888888888888888888   ",
"   8888888888888pGGGGGGGGGGGGGt8888888888888888888888888dGGGGGGGGGGGGH888888888888888888888888888   ",
"   8888888888888pGGGGGGGGGGGGGt8888888888888888888888888dGGGGGGGGGGGGH888888888888888888888888888   ",
"   8888888888888udddddddddddddw8888888888888888888888888iddddddddddddg888888888888888888888888888   ",
"   8888888888888888888q88888888888888888888888888888888888888888888888888888888888888888888888888   ",
"   8888888888888888888888888888888888888888888888888888888888888888888888888888888888888888888888   ",
"   8888888888888888888888888888888888888888888888888888888888888888888888888888888888888888888888   ",
"   8888888888888888888888888888888888888888888888888888888888888888888888888888888888888888888888   ",
"   8888888888888888888888888888888888888888888888888888888888888888888888888888888888888888888888   ",
"   8888888888888888888888888888888888888888888888888888888888888888888888888888888888888888888888   ",
"   8888888888888888888888888888888888888888888888888888888888888888888888888888888888888888888888   ",
"   8888888888888888888888888888888888888888888888888888888888888888888888888888888888888888888888   ",
"   8888888888888888888888888888888888888888888888888888888888888888888888888888888888888888888888   ",
"   8888888888888888888888888888888888888888888888888888888888888888888888888888888888888888888888   ",
"   8888888888888888888888888888888888888888888888888888888888888888888888888888888888888888888888   ",
"   8888888888888888888888888888888888888888888888888888888888888888888888888888888888888888888888   ",
"   8888888888888888888888888888888888888888888888888888888888888888888888888888888888888888888888   ",
"   8888888888888888888888888888888888888888888888888888888888888888888888888888888888888888888888   ",
"   8888888888888888888888888888888888888888888888888888888888888888888888888888888888888888888888   ",
"   8888888888888888888888888888888888888888888888888888888888888888888888888888888888888888888888   ",
"   8888888888888888888888888888888888888888888888888888888888888888888888888888888888888888888888   ",
"   8888888888888888888888888888888888888888888888888888888888888888888888888888888888888888888888   ",
"   8888888888888888888888888888888888888888888888888888888888888888888888888888888888888888888888   ",
"   8888888888888888888888888888888888888888888888888888888888888888888888888888888888888888888888   ",
"   8888888888888888888888888888888888888888888888888888888888888888888888888888888888888888888888   ",
"   8888888888888888888888888888888888888888888888888888888888888888888888888888888888888888888888   ",
"   8888888888888888888888888888888888888888888888888888888888888888888888888888888888888888888888   ",
"   8888888888888888888888888888888888888888888888888888888888888888888888888888888888888888888888   ",
"   8888888888888888888888888888888888888888888888888888888888888888888888888888888888888888888888   ",
"   8888888888888888888888888888888888888888888888888888888888888888888888888888888888888888888888   ",
"   88888888888888      #8888888888888888888$            #8888888888888888888#      88888888888888   ",
"   88888888888888      +8888888888888888888O             8888888888888888888@      88888888888888   ",
"   88888888888888      +8888888888888888888O             8888888888888888888@      88888888888888   ",
"   88888888888888      +8888888888888888888O             8888888888888888888@      88888888888888   ",
"   88888888888888      +8888888888888888888O             8888888888888888888@      88888888888888   ",
"   88888888888888      +8888888888888888888O             8888888888888888888@      88888888888888   ",
"   8888882,,,,,,>      X,,,,,,8888888888888O             8888888888888,,,,,,o      >,,,,,,2888888   ",
"   888888:                    8888888888888O             8888888888888                    :888888   ",
"   888888*                    8888888888888O             8888888888888                    *888888   ",
"   888888*                    8888888888888O             8888888888888                    *888888   ",
"   888888*                    8888888888888O             8888888888888                    *888888   ",
"   888888*                    8888888888888O             8888888888888                    *888888   ",
"   888888*                    8888888888888O             8888888888888                    *888888   ",
"   888888*                    8888888888888              8888888888888                    *888888   ",
"                                                                                                    ",
"                                                                                                    ",
"                                                                                                    "
};
